<?xml version="1.0" standalone="no"?>
<!DOCTYPE svg PUBLIC "-//W3C//DTD SVG 20010904//EN"
 "http://www.w3.org/TR/2001/REC-SVG-20010904/DTD/svg10.dtd">
<svg version="1.0" xmlns="http://www.w3.org/2000/svg"
 width="14779.000000pt" height="14805.000000pt" viewBox="0 0 14779.000000 14805.000000"
 preserveAspectRatio="xMidYMid meet">

<g transform="translate(0.000000,14805.000000) scale(0.100000,-0.100000)"
fill="#000000" stroke="none">
<path d="M72410 148040 c-476 -11 -992 -26 -1470 -45 -11373 -449 -22377
-3477 -32340 -8903 -7402 -4030 -14100 -9334 -19744 -15632 -9749 -10879
-16030 -24310 -18096 -38695 -394 -2746 -631 -5464 -720 -8270 -45 -1438 -45
-3248 0 -4675 379 -11890 3534 -23304 9298 -33634 3941 -7066 9072 -13495
15112 -18937 5458 -4917 11594 -8985 18225 -12082 5676 -2651 11702 -4573
17862 -5696 323 -59 425 -75 293 -44 -36 8 -261 60 -500 114 -5104 1171
-10096 3038 -14735 5511 -6062 3233 -11519 7467 -16166 12543 -5214 5696
-9284 12330 -11986 19540 -3039 8109 -4286 16853 -3648 25585 508 6947 2200
13704 5018 20035 2719 6110 6440 11724 11031 16644 874 937 1990 2053 2927
2927 4569 4264 9760 7793 15357 10440 9102 4306 19058 6240 29212 5674 7549
-421 14942 -2261 21790 -5422 1357 -627 2800 -1361 4090 -2081 5921 -3305
11251 -7589 15755 -12662 3807 -4287 6994 -9107 9430 -14260 3478 -7359 5413
-15308 5715 -23480 25 -680 31 -987 37 -1885 9 -1567 -26 -2826 -122 -4320
-349 -5404 -1416 -10708 -3180 -15800 -2696 -7782 -6974 -14934 -12580 -21035
-1103 -1200 -2400 -2497 -3600 -3600 -4667 -4288 -9953 -7804 -15685 -10432
-3791 -1738 -7794 -3088 -11842 -3994 -130 -29 -235 -55 -234 -57 8 -8 969
173 1661 312 9856 1984 19214 5984 27498 11753 6543 4557 12341 10170 17099
16554 5516 7401 9577 15713 12001 24564 2135 7793 2974 15943 2481 24095 -646
10696 -3590 21055 -8657 30460 -3968 7367 -9169 14019 -15382 19675 -5530
5033 -11798 9208 -18549 12352 -8553 3984 -17775 6278 -27231 6773 -627 33
-1173 54 -2040 81 -433 13 -2890 20 -3385 9z"/>
<path d="M24868 133099 c-3 -30 -7 -34 -35 -37 -18 -2 -33 -9 -32 -15 0 -7 15
-50 34 -97 l34 -85 0 96 1 96 206 12 c113 6 277 14 365 18 88 3 162 9 164 13
2 4 -102 10 -233 14 -130 3 -296 9 -369 13 l-132 6 -3 -34z"/>
<path d="M44940 97214 c-1166 -23 -2378 -66 -2787 -100 l-73 -6 0 -19326 c0
-19164 2 -20450 35 -23107 26 -2073 35 -3848 25 -4860 -5 -547 -13 -969 -20
-1010 -87 -586 -425 -911 -1146 -1101 -223 -58 -437 -98 -1498 -274 -1629
-270 -2268 -394 -3041 -586 -1841 -460 -3138 -1063 -4220 -1965 -189 -157
-637 -601 -786 -779 -614 -731 -994 -1589 -1106 -2500 -22 -183 -25 -677 -5
-845 124 -1009 612 -1780 1499 -2369 424 -281 878 -486 1413 -641 938 -270
2006 -341 3095 -204 1589 199 3177 700 4480 1412 1090 596 1972 1342 2555
2162 471 662 744 1487 844 2545 30 307 37 464 43 890 7 555 -4 900 -72 2085
-13 237 -30 536 -37 665 -10 184 -12 707 -8 2410 9 3861 3 17989 -9 22020 -21
7326 -59 17311 -80 21405 -5 864 -8 1570 -7 1571 0 0 190 -43 421 -98 6244
-1462 10999 -3564 14334 -6336 664 -552 1368 -1232 1912 -1847 1403 -1586
2402 -3351 2984 -5270 292 -965 480 -1967 564 -3005 35 -427 42 -593 48 -1105
6 -508 -3 -859 -33 -1310 -226 -3465 -1504 -7301 -3735 -11211 -621 -1090
-1324 -2189 -2038 -3189 -220 -308 -609 -828 -780 -1043 -67 -85 -121 -156
-119 -157 2 -2 285 272 628 609 7627 7483 12337 13891 14100 19186 469 1405
717 2657 781 3930 13 264 7 991 -11 1210 -61 773 -177 1409 -374 2062 -337
1114 -904 2162 -1680 3103 -376 455 -898 981 -1381 1390 -3136 2659 -8384
4416 -15485 5184 -1910 207 -3789 327 -6115 392 -345 9 -2771 20 -3115 13z"/>
<path d="M78690 94843 c1 -52 -761 -40060 -766 -40200 l-6 -193 -27 19 c-83
59 -304 98 -696 122 -241 15 -1164 15 -1610 0 -1483 -50 -3512 -184 -5245
-347 -663 -62 -798 -80 -1170 -154 -1550 -310 -2927 -761 -4148 -1360 -1075
-528 -1923 -1109 -2626 -1800 -301 -296 -503 -525 -725 -819 -893 -1185 -1464
-2825 -1616 -4636 -39 -467 -50 -1133 -26 -1555 99 -1733 516 -3161 1309
-4480 657 -1095 1536 -1969 2572 -2559 1542 -878 3437 -1170 5595 -860 2721
390 5697 1798 7855 3715 188 166 630 608 795 794 622 701 1101 1409 1504 2225
760 1535 1179 3309 1336 5655 63 941 85 1915 84 3725 0 1250 305 37609 319
37916 l7 165 6230 -1132 c3427 -623 6283 -1143 6348 -1155 l117 -21 0 -7894 0
-7894 2890 0 2890 0 0 7316 0 7317 28 -6 c15 -3 2696 -522 5957 -1152 3262
-631 5933 -1151 5937 -1154 4 -4 -78 -5386 -182 -11961 -105 -6575 -190
-12019 -190 -12097 l0 -143 -40 44 c-157 170 -680 272 -1675 326 -99 5 -425
15 -725 22 -1235 26 -3267 -42 -4960 -168 -648 -48 -861 -71 -1088 -120 -1723
-368 -3359 -1226 -4798 -2515 -205 -183 -680 -658 -863 -863 -1779 -1986
-2771 -4394 -2771 -6726 0 -1945 674 -3713 1991 -5225 151 -173 529 -550 709
-707 900 -782 1915 -1356 3070 -1736 793 -261 1546 -405 2410 -463 227 -16
865 -15 1095 0 1085 73 2025 299 2965 713 227 100 697 335 920 459 1499 834
2879 2011 4143 3531 1665 2004 2527 3754 2887 5859 87 510 131 916 182 1679 9
133 13 4218 15 16871 l3 16696 -107 21 c-60 12 -8194 1570 -18078 3462 -9883
1892 -17982 3443 -17997 3446 -16 3 -28 2 -28 -3z"/>
</g>
</svg>
