<?xml version="1.0" standalone="no"?>
<!DOCTYPE svg PUBLIC "-//W3C//DTD SVG 20010904//EN"
 "http://www.w3.org/TR/2001/REC-SVG-20010904/DTD/svg10.dtd">
<svg version="1.0" xmlns="http://www.w3.org/2000/svg"
 width="26217.000000pt" height="8904.000000pt" viewBox="0 0 26217.000000 8904.000000"
 preserveAspectRatio="xMidYMid meet">

<g transform="translate(0.000000,8904.000000) scale(0.100000,-0.100000)"
fill="#000000" stroke="none">
<path d="M73888 89009 c-3 -30 -7 -34 -35 -37 -18 -2 -33 -9 -32 -15 0 -7 15
-50 34 -97 l34 -85 0 96 1 96 206 12 c113 6 277 14 365 18 88 3 162 9 164 13
2 4 -102 10 -233 14 -130 3 -296 9 -369 13 l-132 6 -3 -34z"/>
<path d="M122922 86815 c5 -5 1636 -119 1953 -137 l60 -3 3 33 c2 20 -2 34
-10 37 -7 2 -413 18 -903 34 -489 17 -939 33 -1000 36 -60 4 -107 3 -103 0z"/>
<path d="M154580 86550 c0 -20 3 -20 433 -20 237 0 605 -7 817 -15 212 -8 424
-15 473 -15 80 0 87 2 87 20 0 20 -7 20 -512 20 -458 0 -803 7 -1175 25 -119
6 -123 5 -123 -15z"/>
<path d="M38020 78470 c-2466 -80 -4771 -357 -7080 -851 -6514 -1395 -12541
-4425 -17580 -8839 -2446 -2142 -4648 -4619 -6491 -7300 -3767 -5478 -6062
-11786 -6693 -18395 -134 -1399 -183 -2545 -173 -4055 6 -818 10 -1024 37
-1585 296 -6211 2023 -12154 5093 -17535 2155 -3776 4959 -7203 8253 -10086
2892 -2531 6118 -4611 9624 -6204 2495 -1134 5174 -2019 7850 -2595 515 -111
1308 -266 1348 -264 9 0 -59 18 -153 40 -2535 587 -4794 1392 -7060 2514
-3856 1911 -7281 4577 -10096 7860 -2690 3137 -4750 6776 -6049 10685 -917
2756 -1448 5611 -1590 8535 -48 1005 -46 2186 5 3205 322 6320 2490 12347
6268 17420 3282 4407 7647 7902 12647 10127 3424 1525 7066 2426 10820 2677
1183 80 2548 93 3725 36 5542 -269 10840 -1943 15520 -4903 3261 -2063 6160
-4742 8486 -7842 1550 -2066 2824 -4273 3837 -6645 1404 -3289 2244 -6824
2477 -10420 51 -792 69 -1477 62 -2365 -6 -696 -12 -916 -42 -1480 -162 -3032
-756 -6027 -1759 -8872 -676 -1919 -1520 -3736 -2564 -5523 -1074 -1838 -2388
-3632 -3833 -5235 -406 -451 -666 -723 -1153 -1211 -488 -487 -760 -747 -1211
-1153 -2998 -2703 -6499 -4823 -10275 -6223 -1258 -466 -2631 -876 -3918
-1170 -127 -29 -228 -54 -223 -56 5 -2 132 20 283 48 6874 1290 13245 4387
18532 9009 1287 1125 2581 2419 3707 3706 2171 2482 3990 5173 5475 8100 3091
6093 4517 12871 4159 19770 -363 6977 -2581 13702 -6440 19525 -3547 5352
-8355 9760 -13990 12828 -761 414 -1653 859 -2464 1229 -4469 2039 -9300 3212
-14236 3458 -170 8 -420 20 -555 26 -305 13 -2234 20 -2580 9z"/>
<path d="M236511 60783 l0 -1408 698 -1405 697 -1405 702 -3 702 -2 0 2815 0
2815 -1400 0 -1400 0 1 -1407z"/>
<path d="M81600 53190 l0 -7880 1410 0 1410 0 0 3620 0 3620 3770 0 c3182 0
3770 2 3770 14 0 10 29 15 128 19 371 15 887 164 1327 383 1198 597 2049 1718
2299 3029 224 1176 -61 2397 -781 3348 -85 111 -150 189 -298 354 -55 62 -116
131 -135 154 -19 23 -91 91 -160 152 -299 263 -579 451 -922 622 -509 253
-1043 396 -1623 435 -96 6 -1945 10 -5172 10 l-5023 0 0 -7880z m10292 4998
c427 -107 749 -362 938 -743 115 -231 155 -407 154 -665 -1 -185 -20 -299 -75
-457 -120 -340 -366 -626 -676 -785 -56 -29 -103 -58 -103 -65 0 -32 -267
-114 -433 -132 -67 -8 -1198 -11 -3687 -11 l-3590 0 0 1445 0 1445 3683 -3
3682 -2 107 -27z"/>
<path d="M98007 61063 c-11 -10 -8 -7856 3 -8143 25 -665 117 -1254 290 -1869
520 -1845 1718 -3457 3345 -4502 1042 -669 2230 -1081 3465 -1203 554 -55
1222 -46 1770 25 2284 292 4317 1566 5594 3506 758 1151 1190 2455 1276 3853
6 107 10 1596 10 4253 l0 4087 -1410 0 -1410 0 -3 -4117 c-3 -4537 2 -4175
-63 -4573 -207 -1282 -908 -2444 -1946 -3225 -547 -413 -1158 -706 -1807 -869
-1395 -350 -2850 -99 -4041 697 -289 193 -507 372 -766 631 -200 201 -334 356
-494 571 -488 655 -813 1435 -936 2250 -51 339 -47 36 -53 4495 l-6 4135
-1406 3 c-773 1 -1409 -1 -1412 -5z"/>
<path d="M120045 61063 c-547 -28 -1105 -170 -1600 -407 -849 -407 -1548
-1094 -1971 -1937 -331 -661 -484 -1407 -445 -2178 48 -948 332 -1711 934
-2510 593 -785 1557 -1359 2573 -1530 341 -58 102 -54 3499 -61 3441 -6 3157
-1 3425 -66 222 -55 479 -168 681 -302 507 -334 851 -871 946 -1477 24 -152
24 -469 -1 -620 -75 -469 -278 -868 -610 -1201 -338 -337 -744 -542 -1231
-621 -104 -17 -267 -18 -2775 -18 -2956 0 -2731 -5 -3003 64 -905 230 -1569
1037 -1614 1964 l-6 127 -1414 0 -1413 0 6 -147 c29 -732 188 -1388 488 -2008
244 -506 539 -924 936 -1329 813 -829 1817 -1322 2991 -1468 l184 -23 2830 0
c2992 0 2871 -2 3199 46 1979 286 3615 1764 4102 3704 291 1161 160 2374 -372
3436 -259 518 -565 935 -995 1354 -229 223 -409 371 -652 538 -599 412 -1297
692 -2015 806 -360 58 -125 54 -3517 61 l-3120 6 -100 23 c-304 69 -524 188
-736 400 -170 171 -280 348 -353 571 -57 175 -69 276 -63 532 4 197 7 235 30
323 143 556 559 959 1118 1081 81 18 209 19 3474 19 3268 0 3393 -1 3475 -19
527 -115 932 -483 1094 -994 34 -109 54 -233 62 -386 l7 -128 166 6 c91 3 659
8 1261 11 602 3 1162 8 1244 11 l149 6 -6 192 c-7 202 -18 334 -43 506 -198
1382 -1090 2599 -2359 3220 -496 242 -1026 382 -1590 420 -134 9 -6699 12
-6870 3z"/>
<path d="M133170 53190 l0 -7880 1410 0 1410 0 0 3620 0 3620 3770 0 c3169 0
3770 2 3770 14 0 10 30 14 133 19 202 8 537 77 792 162 956 320 1793 999 2310
1875 522 884 705 1909 525 2930 -122 690 -444 1387 -902 1952 -512 633 -1190
1101 -1968 1357 -246 82 -542 146 -865 188 -121 16 -504 17 -5257 20 l-5128 3
0 -7880z m10065 5050 c365 -30 658 -162 900 -404 201 -201 333 -450 396 -746
30 -138 32 -398 5 -534 -88 -446 -373 -824 -768 -1017 -38 -18 -68 -39 -68
-45 0 -17 -135 -71 -244 -99 -50 -13 -137 -28 -194 -34 -73 -8 -1133 -11
-3687 -11 l-3585 0 0 1450 0 1450 3563 0 c2241 0 3606 -4 3682 -10z"/>
<path d="M153545 61059 c-627 -44 -1242 -229 -1785 -537 -496 -281 -949 -679
-1301 -1144 -315 -416 -553 -892 -693 -1388 -73 -257 -108 -430 -143 -710 -17
-138 -18 -340 -18 -4090 0 -3746 1 -3953 18 -4095 48 -397 134 -739 274 -1095
389 -986 1140 -1801 2089 -2265 420 -206 846 -331 1364 -402 117 -16 526 -17
6058 -20 l5932 -3 0 1410 0 1410 -5847 3 -5848 2 -90 21 c-301 71 -527 194
-730 398 -220 221 -354 477 -406 774 -18 110 -19 173 -19 1658 l0 1544 5060 0
5060 0 0 1410 0 1410 -5060 0 -5060 0 0 788 c0 852 2 883 55 1067 109 375 368
692 716 875 178 93 351 143 555 160 76 6 2187 10 5867 10 l5747 0 -2 1408 -3
1407 -5840 1 c-3212 1 -5889 -2 -5950 -7z"/>
<path d="M180508 56064 l-3 -5010 -4905 3779 c-4555 3509 -8001 6157 -8022
6165 -4 2 -8 -3527 -8 -7842 l0 -7846 1415 0 1415 0 2 4971 3 4971 4930 -3798
c3857 -2971 7552 -5811 7958 -6118 l37 -28 0 7869 0 7870 -1052 7 c-579 3
-1214 9 -1410 12 l-358 7 -2 -5009z"/>
<path d="M185577 61064 c-4 -4 -7 -3550 -7 -7881 l0 -7873 4073 0 c4080 0
4212 1 4572 36 1644 157 3201 844 4441 1961 273 246 658 640 850 871 844 1013
1425 2245 1668 3537 172 914 182 1875 30 2780 -233 1386 -823 2667 -1725 3745
-1309 1565 -3151 2554 -5172 2780 -409 46 -245 44 -4588 47 -2274 2 -4138 0
-4142 -3z m8263 -2832 c697 -72 1239 -224 1815 -507 513 -251 936 -555 1345
-965 416 -416 731 -858 986 -1385 686 -1418 669 -3086 -46 -4490 -403 -791
-992 -1452 -1730 -1940 -675 -446 -1402 -708 -2251 -812 -133 -16 -346 -18
-2866 -20 l-2723 -3 0 5070 0 5071 2678 -4 c1970 -3 2707 -7 2792 -15z"/>
<path d="M223822 54573 c-1821 -3574 -3628 -7118 -4016 -7876 -388 -758 -706
-1380 -706 -1382 0 -3 710 -5 1578 -5 l1577 0 742 1448 c407 796 1502 2941
2433 4767 931 1826 1696 3324 1700 3328 4 4 785 -1517 1735 -3380 950 -1863
2048 -4012 2438 -4775 l711 -1388 1578 0 c868 0 1578 2 1578 4 0 2 -317 623
-705 1380 -387 756 -2161 4234 -3941 7728 -1780 3494 -3271 6420 -3313 6501
l-78 148 -3311 -6498z"/>
<path d="M245555 61059 c-1157 -77 -2217 -620 -2973 -1521 -462 -552 -785
-1237 -916 -1948 -55 -300 -61 -384 -61 -830 0 -378 2 -430 23 -585 79 -581
241 -1070 510 -1545 126 -223 354 -554 514 -745 287 -345 690 -674 1123 -916
478 -267 979 -427 1581 -506 118 -15 401 -17 3249 -23 3463 -6 3170 0 3442
-71 1032 -266 1728 -1248 1623 -2290 -100 -983 -854 -1768 -1851 -1926 -108
-17 -258 -18 -2779 -18 -2521 0 -2671 1 -2779 18 -366 58 -700 198 -989 414
-103 78 -298 268 -382 373 -281 353 -444 782 -467 1228 l-6 122 -1409 0 -1408
0 0 -137 c0 -419 89 -940 237 -1397 363 -1121 1116 -2080 2123 -2705 580 -361
1239 -599 1920 -695 297 -42 225 -41 3155 -41 3012 0 2876 -2 3225 51 1742
267 3223 1451 3875 3099 186 470 301 992 335 1520 74 1166 -282 2346 -997
3297 -189 251 -548 626 -798 834 -678 562 -1478 930 -2331 1074 -406 69 -131
64 -3574 70 l-3115 6 -96 22 c-283 65 -508 181 -702 362 -236 221 -391 511
-442 825 -20 124 -20 423 1 546 21 127 84 313 144 427 70 133 150 241 261 351
165 166 344 277 564 350 234 77 -77 71 3639 71 3626 0 3398 3 3601 -55 117
-34 291 -118 407 -196 123 -83 296 -257 376 -378 156 -233 235 -476 249 -766
l6 -137 166 6 c91 3 659 8 1261 11 602 3 1161 8 1243 11 l147 6 0 112 c0 428
-77 889 -220 1316 -335 1007 -1040 1856 -1978 2382 -547 307 -1152 485 -1797
528 -181 12 -6748 11 -6930 -1z"/>
<path d="M203550 53140 l0 -7880 1410 0 1410 0 0 3625 0 3626 1533 -4 1532 -3
140 -22 c313 -51 558 -128 830 -262 278 -137 484 -282 704 -495 223 -217 387
-434 512 -680 147 -287 1854 -3624 2413 -4715 l545 -1065 1576 -3 c1170 -1
1575 1 1575 9 0 7 -308 613 -684 1348 -376 735 -1204 2376 -1839 3647 l-1155
2311 96 12 c650 82 1326 366 1891 794 699 529 1222 1264 1491 2093 338 1044
259 2183 -218 3164 -216 442 -487 817 -853 1175 -390 382 -805 659 -1308 875
-349 149 -712 245 -1161 307 -117 16 -464 17 -5282 20 l-5158 3 0 -7880z
m10227 5037 c302 -62 536 -187 738 -391 210 -212 343 -467 402 -771 23 -122
23 -366 -1 -495 -51 -281 -195 -557 -397 -759 -114 -114 -236 -199 -394 -276
-148 -72 -222 -99 -350 -127 -87 -20 -136 -21 -1320 -28 -676 -4 -2322 -11
-3657 -15 l-2428 -7 0 1446 0 1446 3663 -3 c3407 -3 3668 -4 3744 -20z"/>
<path d="M23645 51533 c-390 -7 -1150 -36 -1282 -49 l-63 -6 0 -10431 c0
-7534 3 -10693 12 -11372 6 -517 12 -1586 12 -2375 1 -1321 0 -1440 -16 -1501
-75 -290 -277 -443 -709 -534 -68 -14 -315 -58 -549 -96 -827 -137 -1163 -199
-1556 -289 -1129 -259 -1917 -627 -2534 -1185 -311 -281 -545 -595 -694 -932
-340 -767 -264 -1553 201 -2074 500 -562 1413 -871 2418 -819 1114 57 2394
486 3228 1082 475 339 840 734 1033 1118 287 571 357 1235 272 2565 l-23 360
3 3105 c5 4386 -16 12778 -48 19844 -6 1237 -9 2250 -7 2253 3 2 168 -35 367
-82 4253 -1014 7222 -2620 8864 -4795 1544 -2046 1902 -4578 1062 -7512 -443
-1546 -1248 -3227 -2299 -4803 -233 -348 -551 -790 -744 -1033 -41 -52 -73
-96 -70 -98 6 -6 1259 1245 1575 1574 3270 3401 5267 6226 6167 8722 236 655
390 1314 462 1975 25 231 25 915 0 1133 -69 602 -214 1109 -460 1608 -248 500
-552 919 -977 1344 -980 981 -2439 1750 -4375 2307 -2295 660 -5293 1012
-8530 1001 -335 -1 -668 -3 -740 -5z"/>
<path d="M41706 50218 c-3 -35 -93 -4736 -201 -10448 -108 -5712 -199 -10501
-202 -10642 l-6 -257 -29 15 c-210 108 -1585 75 -3523 -86 -760 -63 -907 -82
-1285 -165 -1030 -225 -1960 -594 -2675 -1062 -441 -289 -821 -637 -1102
-1008 -412 -546 -698 -1289 -817 -2125 -45 -314 -51 -422 -51 -855 1 -439 9
-557 61 -895 135 -879 467 -1647 991 -2290 114 -140 389 -411 538 -530 623
-498 1374 -773 2270 -830 1548 -99 3447 554 4926 1692 1250 962 1929 2143
2209 3838 76 464 124 983 150 1645 6 143 13 688 15 1210 11 2023 170 20395
177 20395 9 0 6585 -1195 6666 -1211 l52 -10 0 -4185 0 -4184 1535 0 1535 0 2
3878 3 3877 3155 -610 3155 -611 3 -49 c1 -28 -43 -2884 -98 -6349 -55 -3464
-100 -6326 -100 -6359 l0 -60 -22 20 c-154 140 -878 202 -2063 175 -824 -19
-1753 -68 -2205 -118 -306 -33 -777 -170 -1170 -341 -1770 -768 -3154 -2502
-3450 -4325 -157 -968 1 -1911 459 -2733 97 -174 276 -440 407 -605 138 -173
479 -515 652 -652 1011 -805 2348 -1178 3642 -1017 803 100 1556 408 2348 961
598 418 1208 1001 1744 1671 971 1210 1400 2295 1488 3767 6 107 10 3288 10
9012 l0 8847 -52 10 c-145 29 -19120 3661 -19127 3661 -5 0 -12 -28 -15 -62z"/>
<path d="M81250 27720 l0 -15870 87640 0 87640 0 0 15870 0 15870 -87640 0
-87640 0 0 -15870z m43280 -300 l0 -13240 -2650 0 -2650 0 0 10590 0 10590
-5295 0 -5295 0 0 -10590 0 -10590 -2645 0 -2645 0 0 10590 0 10590 -5295 0
-5295 0 0 -10590 0 -10590 -2650 0 -2650 0 0 13240 0 13240 18535 0 18535 0 0
-13240z m15890 2650 l0 -10590 7940 0 7940 0 0 10590 0 10590 2650 0 2650 0 0
-13240 0 -13240 -13240 0 -13240 0 0 13240 0 13240 2650 0 2650 0 0 -10590z
m58240 7940 l0 -2650 -10590 0 -10590 0 0 -2645 0 -2645 10590 0 10590 0 0
-7945 0 -7945 -13235 0 -13235 0 0 2650 0 2650 10590 0 10590 0 0 2645 0 2645
-10590 0 -10590 0 0 7945 0 7945 13235 0 13235 0 0 -2650z m15890 -10590 l0
-13240 -2650 0 -2650 0 0 13240 0 13240 2650 0 2650 0 0 -13240z m37060 10590
l0 -2650 -10590 0 -10590 0 0 -7940 0 -7940 10590 0 10590 0 0 -2650 0 -2650
-13235 0 -13235 0 0 13240 0 13240 13235 0 13235 0 0 -2650z"/>
</g>
</svg>
